# xmcd CD database file
#
# Track frame offsets:
#	150
#	64650
#	127176
#
# Disc length: 2736 seconds
#
# Revision: 0
# Processed by: cddbd v1.5.2PL0 Copyright (c) Steve Scherf et al.
# Submitted via: CDex 1.70beta2
#
DISCID=270aae03
DTITLE=Ornette Coleman Trio - Live Free Trade Hall Manchester
DYEAR=1966
DGENRE=Jazz
TTITLE0=European Echoes
TTITLE1=Unnamed
TTITLE2=Unnamed
EXTD=YEAR: 1966
EXTT0=
EXTT1=
EXTT2=
PLAYORDER=
